<?xml version="1.0" standalone="no"?>
<!DOCTYPE svg PUBLIC "-//W3C//DTD SVG 1.1//EN" "http://www.w3.org/Graphics/SVG/1.1/DTD/svg11.dtd"><svg xmlns="http://www.w3.org/2000/svg" style="background-color:#FFF" width="612" height="990"><path stroke="black" fill="none" stroke-width="1" d="M198.1, 507L200.21, 506.89L202.26, 506.58L204.24, 506.08L206.14, 505.38L209.65, 503.49L212.71, 500.97L215.23, 497.93L216.26, 496.23L217.13, 494.43L217.81, 492.53L218.31, 490.56L218.61, 488.51L218.7, 486.4L218.7, 205.8L219, 204.32L219.81, 203.11L221.02, 202.3L222.5, 202L365, 202L367.11, 201.89L369.16, 201.58L371.13, 201.08L373.03, 200.38L376.53, 198.49L379.58, 195.98L382.09, 192.93L383.98, 189.43L384.68, 187.53L385.18, 185.56L385.49, 183.51L385.6, 181.4L385.49, 179.29L385.18, 177.24L384.68, 175.27L383.98, 173.37L382.09, 169.87L379.58, 166.83L376.53, 164.31L373.03, 162.42L371.13, 161.72L369.16, 161.22L367.11, 160.91L365, 160.8L222.5, 160.8L217.91, 161.03L213.45, 161.72L209.14, 162.83L205.01, 164.34L201.07, 166.24L197.36, 168.5L193.9, 171.09L190.7, 174L187.79, 177.2L185.2, 180.66L182.94, 184.37L181.04, 188.31L179.53, 192.44L178.42, 196.75L177.73, 201.21L177.5, 205.8L177.5, 486.4L177.61, 488.51L177.92, 490.56L178.42, 492.53L179.12, 494.43L181.01, 497.93L183.52, 500.97L186.57, 503.49L190.07, 505.38L191.97, 506.08L193.94, 506.58L195.99, 506.89L198.1, 507"/><path stroke="black" fill="none" stroke-width="1" d="M227.4, 566L229.23, 564.94L231.13, 564.09L233.06, 563.44L235.03, 562.99L239, 562.67L242.92, 563.12L246.69, 564.32L250.18, 566.22L251.79, 567.44L253.29, 568.83L254.66, 570.38L255.9, 572.1L256.96, 573.93L257.81, 575.83L258.46, 577.76L258.91, 579.73L259.23, 583.7L258.77, 587.63L257.58, 591.39L255.67, 594.88L254.46, 596.49L253.07, 597.99L251.52, 599.36L249.8, 600.6L212.3, 624.9L211.8, 625.2L206.43, 627.83L200.85, 629.7L195.12, 630.83L189.3, 631.2L186.36, 631.1L183.4, 630.81L180.44, 630.31L177.5, 629.6L173.24, 628.23L169.17, 626.47L165.31, 624.34L161.7, 621.84L158.35, 619L155.28, 615.83L152.52, 612.36L150.1, 608.6L9.9, 365.7L7.86, 361.72L6.23, 357.61L5.02, 353.39L4.24, 349.09L3.88, 344.72L3.95, 340.32L4.46, 335.9L5.4, 331.5L6.76, 327.24L8.51, 323.18L10.63, 319.35L13.1, 315.75L15.91, 312.42L19.04, 309.37L22.48, 306.62L26.2, 304.2L112.4, 252.8L114.27, 251.82L116.19, 251.04L118.15, 250.47L120.13, 250.1L124.11, 249.95L128.01, 250.55L131.74, 251.89L135.17, 253.92L136.74, 255.2L138.19, 256.64L139.52, 258.24L140.7, 260L141.68, 261.87L142.46, 263.79L143.03, 265.75L143.4, 267.73L143.55, 271.71L142.95, 275.61L141.61, 279.34L139.58, 282.77L138.3, 284.34L136.86, 285.79L135.26, 287.12L133.5, 288.3L47, 339.9L46.3, 340.41L45.81, 341.01L45.3, 342.2L45.16, 343.5L45.31, 344.28L45.7, 345.1L186, 588.1L186.51, 588.8L187.11, 589.29L188.3, 589.8L189.45, 589.96L190.16, 589.87L190.9, 589.6L227.4, 566"/><path stroke="black" fill="none" stroke-width="1" d="M606.6, 320.7L607.54, 325.07L608.05, 329.47L608.12, 333.88L607.76, 338.25L606.98, 342.57L605.77, 346.8L604.14, 350.92L602.1, 354.9L461.8, 597.9L460.22, 600.43L458.49, 602.83L454.6, 607.24L450.19, 611.08L445.34, 614.33L440.11, 616.92L434.56, 618.83L428.77, 620L425.8, 620.3L422.8, 620.4L416.92, 620.01L411.19, 618.86L405.66, 616.98L400.4, 614.4L275.1, 542.1L271.34, 539.68L267.88, 536.93L264.73, 533.88L261.9, 530.54L259.41, 526.93L257.27, 523.07L255.49, 518.99L254.1, 514.7L253.16, 510.33L252.65, 505.93L252.58, 501.52L252.94, 497.15L253.72, 492.83L254.93, 488.6L256.56, 484.48L258.6, 480.5L398.9, 237.5L400.48, 234.96L402.22, 232.54L406.12, 228.12L410.54, 224.27L415.41, 221.04L420.66, 218.45L426.22, 216.56L432.03, 215.4L435, 215.1L438, 215L443.88, 215.39L449.61, 216.54L455.14, 218.42L460.4, 221L585.6, 293.3L589.36, 295.72L592.82, 298.47L595.97, 301.52L598.8, 304.86L601.29, 308.47L603.43, 312.33L605.21, 316.41L606.6, 320.7"/><path stroke="black" fill="none" stroke-width="1" d="M566.3, 334.3L426, 577.3L425.34, 578.19L424.5, 578.78L423.58, 579.1L422.7, 579.2L421.8, 579.06L420.9, 578.7L295.7, 506.4L295, 505.89L294.51, 505.29L294, 504.1L293.94, 502.8L294.07, 502.02L294.4, 501.2L434.7, 258.2L435.36, 257.31L436.2, 256.72L437.12, 256.4L438, 256.3L438.89, 256.4L439.7, 256.8L564.9, 329.1L565.6, 329.61L566.09, 330.21L566.6, 331.4L566.75, 332.7L566.63, 333.48L566.3, 334.3"/></svg>